<svg xmlns="http://www.w3.org/2000/svg" viewBox="0 0 300 580" fill="none">
  <!-- Phone body -->
  <rect x="20" y="10" width="260" height="560" rx="36" fill="#f8faff" stroke="#d0d9f0" stroke-width="2.5"/>
  <!-- Screen area -->
  <rect x="28" y="44" width="244" height="496" rx="4" fill="white"/>
  <!-- Notch -->
  <rect x="110" y="18" width="80" height="18" rx="9" fill="#d0d9f0"/>

  <!-- Status bar -->
  <rect x="28" y="44" width="244" height="22" fill="#335EEA" rx="0"/>
  <rect x="36" y="50" width="30" height="8" rx="4" fill="rgba(255,255,255,0.6)"/>
  <circle cx="254" cy="54" r="4" fill="rgba(255,255,255,0.6)"/>
  <rect x="238" y="51" width="12" height="6" rx="1" fill="none" stroke="rgba(255,255,255,0.6)" stroke-width="1"/>

  <!-- Header bar -->
  <rect x="28" y="66" width="244" height="54" fill="#335EEA"/>
  <rect x="40" y="76" width="120" height="12" rx="6" fill="rgba(255,255,255,0.9)"/>
  <rect x="40" y="94" width="80" height="8" rx="4" fill="rgba(255,255,255,0.5)"/>
  <circle cx="244" cy="93" r="14" fill="rgba(255,255,255,0.15)"/>
  <rect x="238" y="87" width="12" height="12" rx="2" fill="rgba(255,255,255,0.7)"/>

  <!-- Doctor team section -->
  <rect x="28" y="120" width="244" height="8" fill="#f0f4ff"/>
  <rect x="40" y="136" width="100" height="10" rx="5" fill="#2d3748"/>
  <!-- Doctor card 1 -->
  <rect x="40" y="156" width="96" height="72" rx="10" fill="#f8faff" stroke="#e8f0fe" stroke-width="1.5"/>
  <circle cx="88" cy="178" r="18" fill="#e8f0fe"/>
  <circle cx="88" cy="174" r="8" fill="#a0aec0"/>
  <ellipse cx="88" cy="190" rx="12" ry="6" fill="#a0aec0"/>
  <rect x="54" y="200" width="68" height="8" rx="4" fill="#335EEA" opacity="0.8"/>
  <rect x="60" y="212" width="56" height="7" rx="3.5" fill="#e8f0fe"/>
  <!-- Doctor card 2 -->
  <rect x="144" y="156" width="96" height="72" rx="10" fill="#f8faff" stroke="#e8f0fe" stroke-width="1.5"/>
  <circle cx="192" cy="178" r="18" fill="#fde8f0"/>
  <circle cx="192" cy="174" r="8" fill="#c0a0b0"/>
  <ellipse cx="192" cy="190" rx="12" ry="6" fill="#c0a0b0"/>
  <rect x="158" y="200" width="68" height="8" rx="4" fill="#e8327a" opacity="0.8"/>
  <rect x="164" y="212" width="56" height="7" rx="3.5" fill="#fde8f0"/>

  <!-- Health services section -->
  <rect x="28" y="238" width="244" height="8" fill="#f0f4ff"/>
  <rect x="40" y="254" width="100" height="10" rx="5" fill="#2d3748"/>
  <!-- Service icons grid 3x3 -->
  <!-- Row 1 -->
  <g>
    <circle cx="72" cy="296" r="22" fill="#fde8f0"/>
    <path d="M64 296 Q68 288 72 296 Q76 288 80 296 L72 305Z" fill="#e8327a" opacity="0.8"/>
    <rect x="56" y="322" width="32" height="7" rx="3.5" fill="#a0aec0"/>
  </g>
  <g>
    <circle cx="150" cy="296" r="22" fill="#e8f0fe"/>
    <rect x="141" y="289" width="18" height="14" rx="3" fill="none" stroke="#335EEA" stroke-width="2"/>
    <rect x="144" y="293" width="12" height="2" rx="1" fill="#335EEA"/>
    <rect x="144" y="297" width="8" height="2" rx="1" fill="#335EEA"/>
    <rect x="56" y="322" width="32" height="7" rx="3.5" fill="transparent"/>
    <rect x="134" y="322" width="32" height="7" rx="3.5" fill="#a0aec0"/>
  </g>
  <g>
    <circle cx="228" cy="296" r="22" fill="#e8f8ee"/>
    <path d="M220 296 L224 300 L236 288" stroke="#0ea84f" stroke-width="2.5" stroke-linecap="round"/>
    <rect x="212" y="322" width="32" height="7" rx="3.5" fill="#a0aec0"/>
  </g>
  <!-- Row 2 -->
  <g>
    <circle cx="72" cy="360" r="22" fill="#fff8e8"/>
    <rect x="63" y="352" width="18" height="4" rx="2" fill="#f6c23e"/>
    <rect x="63" y="359" width="18" height="4" rx="2" fill="#f6c23e"/>
    <rect x="63" y="366" width="12" height="4" rx="2" fill="#f6c23e"/>
    <rect x="56" y="386" width="32" height="7" rx="3.5" fill="#a0aec0"/>
  </g>
  <g>
    <circle cx="150" cy="360" r="22" fill="#f3e8fe"/>
    <circle cx="150" cy="358" r="7" fill="none" stroke="#8b5cf6" stroke-width="2"/>
    <path d="M150 365 L150 371" stroke="#8b5cf6" stroke-width="2" stroke-linecap="round"/>
    <rect x="134" y="386" width="32" height="7" rx="3.5" fill="#a0aec0"/>
  </g>
  <g>
    <circle cx="228" cy="360" r="22" fill="#e8f8f8"/>
    <path d="M220 360 Q224 354 228 360 Q232 354 236 360" stroke="#0ca7a7" stroke-width="2" fill="none"/>
    <path d="M220 366 Q224 360 228 366" stroke="#0ca7a7" stroke-width="1.5" fill="none"/>
    <rect x="212" y="386" width="32" height="7" rx="3.5" fill="#a0aec0"/>
  </g>

  <!-- Hospital services section -->
  <rect x="28" y="404" width="244" height="8" fill="#f0f4ff"/>
  <rect x="40" y="418" width="100" height="10" rx="5" fill="#2d3748"/>
  <rect x="40" y="436" width="60" height="40" rx="8" fill="#e8f0fe"/>
  <rect x="110" y="436" width="60" height="40" rx="8" fill="#fde8f0"/>
  <rect x="180" y="436" width="60" height="40" rx="8" fill="#e8f8ee"/>
  <rect x="44" y="450" width="52" height="7" rx="3.5" fill="#335EEA" opacity="0.6"/>
  <rect x="114" y="450" width="52" height="7" rx="3.5" fill="#e8327a" opacity="0.6"/>
  <rect x="184" y="450" width="52" height="7" rx="3.5" fill="#0ea84f" opacity="0.6"/>

  <!-- Bottom nav -->
  <rect x="28" y="492" width="244" height="48" fill="white" stroke="#e8f0fe" stroke-width="1"/>
  <circle cx="80" cy="516" r="14" fill="#e8f0fe"/>
  <rect x="72" y="510" width="16" height="12" rx="2" fill="#335EEA" opacity="0.7"/>
  <circle cx="150" cy="516" r="16" fill="#335EEA"/>
  <rect x="143" y="510" width="14" height="12" rx="2" fill="white"/>
  <circle cx="220" cy="516" r="14" fill="#f8faff"/>
  <circle cx="220" cy="512" r="5" fill="#a0aec0"/>
  <ellipse cx="220" cy="525" rx="7" ry="4" fill="#a0aec0"/>
</svg>
